<?xml version="1.0" encoding="iso-8859-1"?><!DOCTYPE svg PUBLIC "-//W3C//DTD SVG 1.0//EN" "http://www.w3.org/TR/2001/REC-SVG-20010904/DTD/svg10.dtd"><svg xmlns="http://www.w3.org/2000/svg" height="800" width="1000" style="background-color:black" ><defs>
    <style>

    #ruler line{stroke:white;}

    .timeline{stroke-width:5;stroke:#3A5766;fill:none}
    .timeline.vanishing{stroke:url(#timeline_end_gradient)}

    .time_travel{stroke:white;stroke-width:2; fill:none}
    .time_travel.back_to_the_future{opacity:.6}

    .time_travel.taveler_type_timeship{stroke:white}
    .time_travel.taveler_type_starship{stroke:#66BBFF}
    .time_travel.taveler_type_people{stroke:#0269B3}
    .time_travel.taveler_type_signal{stroke:white}
    .time_travel.taveler_type_consciousness{stroke:white; stroke-width:1}
    </style>
<linearGradient id="timeline_end_gradient" gradientUnits="objectBoundingBox" x1="0%" y1="0%" x2="0" y2="100%">
<stop offset="0%" style="stop-color:#3A5766;stop-opacity:1"/>
<stop offset="100%" style="stop-color:#3A5766;stop-opacity:0"/>
</linearGradient>
</defs>
<g id="ruler" style="opacity:.2"><line x1="505"  x2="505" y1="0" y2="800" /><text x="520" y="0" style="fill:#fff;font-family:sans-serif">1870</text><line x1="505"  x2="515" y1="0" y2="0" /><line x1="505"  x2="510" y1="5" y2="5" /><line x1="505"  x2="510" y1="10" y2="10" /><line x1="505"  x2="510" y1="15" y2="15" /><line x1="505"  x2="510" y1="20" y2="20" /><line x1="505"  x2="510" y1="25" y2="25" /><line x1="505"  x2="510" y1="30" y2="30" /><line x1="505"  x2="510" y1="35" y2="35" /><line x1="505"  x2="510" y1="40" y2="40" /><line x1="505"  x2="510" y1="45" y2="45" /><text x="520" y="50" style="fill:#fff;font-family:sans-serif">1880</text><line x1="505"  x2="515" y1="50" y2="50" /><line x1="505"  x2="510" y1="55" y2="55" /><line x1="505"  x2="510" y1="60" y2="60" /><line x1="505"  x2="510" y1="65" y2="65" /><line x1="505"  x2="510" y1="70" y2="70" /><line x1="505"  x2="510" y1="75" y2="75" /><line x1="505"  x2="510" y1="80" y2="80" /><line x1="505"  x2="510" y1="85" y2="85" /><line x1="505"  x2="510" y1="90" y2="90" /><line x1="505"  x2="510" y1="95" y2="95" /><text x="520" y="100" style="fill:#fff;font-family:sans-serif">1890</text><line x1="505"  x2="515" y1="100" y2="100" /><line x1="505"  x2="510" y1="105" y2="105" /><line x1="505"  x2="510" y1="110" y2="110" /><line x1="505"  x2="510" y1="115" y2="115" /><line x1="505"  x2="510" y1="120" y2="120" /><line x1="505"  x2="510" y1="125" y2="125" /><line x1="505"  x2="510" y1="130" y2="130" /><line x1="505"  x2="510" y1="135" y2="135" /><line x1="505"  x2="510" y1="140" y2="140" /><line x1="505"  x2="510" y1="145" y2="145" /><text x="520" y="150" style="fill:#fff;font-family:sans-serif">1900</text><line x1="505"  x2="515" y1="150" y2="150" /><line x1="505"  x2="510" y1="155" y2="155" /><line x1="505"  x2="510" y1="160" y2="160" /><line x1="505"  x2="510" y1="165" y2="165" /><line x1="505"  x2="510" y1="170" y2="170" /><line x1="505"  x2="510" y1="175" y2="175" /><line x1="505"  x2="510" y1="180" y2="180" /><line x1="505"  x2="510" y1="185" y2="185" /><line x1="505"  x2="510" y1="190" y2="190" /><line x1="505"  x2="510" y1="195" y2="195" /><text x="520" y="200" style="fill:#fff;font-family:sans-serif">1910</text><line x1="505"  x2="515" y1="200" y2="200" /><line x1="505"  x2="510" y1="205" y2="205" /><line x1="505"  x2="510" y1="210" y2="210" /><line x1="505"  x2="510" y1="215" y2="215" /><line x1="505"  x2="510" y1="220" y2="220" /><line x1="505"  x2="510" y1="225" y2="225" /><line x1="505"  x2="510" y1="230" y2="230" /><line x1="505"  x2="510" y1="235" y2="235" /><line x1="505"  x2="510" y1="240" y2="240" /><line x1="505"  x2="510" y1="245" y2="245" /><text x="520" y="250" style="fill:#fff;font-family:sans-serif">1920</text><line x1="505"  x2="515" y1="250" y2="250" /><line x1="505"  x2="510" y1="255" y2="255" /><line x1="505"  x2="510" y1="260" y2="260" /><line x1="505"  x2="510" y1="265" y2="265" /><line x1="505"  x2="510" y1="270" y2="270" /><line x1="505"  x2="510" y1="275" y2="275" /><line x1="505"  x2="510" y1="280" y2="280" /><line x1="505"  x2="510" y1="285" y2="285" /><line x1="505"  x2="510" y1="290" y2="290" /><line x1="505"  x2="510" y1="295" y2="295" /><text x="520" y="300" style="fill:#fff;font-family:sans-serif">1930</text><line x1="505"  x2="515" y1="300" y2="300" /><line x1="505"  x2="510" y1="305" y2="305" /><line x1="505"  x2="510" y1="310" y2="310" /><line x1="505"  x2="510" y1="315" y2="315" /><line x1="505"  x2="510" y1="320" y2="320" /><line x1="505"  x2="510" y1="325" y2="325" /><line x1="505"  x2="510" y1="330" y2="330" /><line x1="505"  x2="510" y1="335" y2="335" /><line x1="505"  x2="510" y1="340" y2="340" /><line x1="505"  x2="510" y1="345" y2="345" /><text x="520" y="350" style="fill:#fff;font-family:sans-serif">1940</text><line x1="505"  x2="515" y1="350" y2="350" /><line x1="505"  x2="510" y1="355" y2="355" /><line x1="505"  x2="510" y1="360" y2="360" /><line x1="505"  x2="510" y1="365" y2="365" /><line x1="505"  x2="510" y1="370" y2="370" /><line x1="505"  x2="510" y1="375" y2="375" /><line x1="505"  x2="510" y1="380" y2="380" /><line x1="505"  x2="510" y1="385" y2="385" /><line x1="505"  x2="510" y1="390" y2="390" /><line x1="505"  x2="510" y1="395" y2="395" /><text x="520" y="400" style="fill:#fff;font-family:sans-serif">1950</text><line x1="505"  x2="515" y1="400" y2="400" /><line x1="505"  x2="510" y1="405" y2="405" /><line x1="505"  x2="510" y1="410" y2="410" /><line x1="505"  x2="510" y1="415" y2="415" /><line x1="505"  x2="510" y1="420" y2="420" /><line x1="505"  x2="510" y1="425" y2="425" /><line x1="505"  x2="510" y1="430" y2="430" /><line x1="505"  x2="510" y1="435" y2="435" /><line x1="505"  x2="510" y1="440" y2="440" /><line x1="505"  x2="510" y1="445" y2="445" /><text x="520" y="450" style="fill:#fff;font-family:sans-serif">1960</text><line x1="505"  x2="515" y1="450" y2="450" /><line x1="505"  x2="510" y1="455" y2="455" /><line x1="505"  x2="510" y1="460" y2="460" /><line x1="505"  x2="510" y1="465" y2="465" /><line x1="505"  x2="510" y1="470" y2="470" /><line x1="505"  x2="510" y1="475" y2="475" /><line x1="505"  x2="510" y1="480" y2="480" /><line x1="505"  x2="510" y1="485" y2="485" /><line x1="505"  x2="510" y1="490" y2="490" /><line x1="505"  x2="510" y1="495" y2="495" /><text x="520" y="500" style="fill:#fff;font-family:sans-serif">1970</text><line x1="505"  x2="515" y1="500" y2="500" /><line x1="505"  x2="510" y1="505" y2="505" /><line x1="505"  x2="510" y1="510" y2="510" /><line x1="505"  x2="510" y1="515" y2="515" /><line x1="505"  x2="510" y1="520" y2="520" /><line x1="505"  x2="510" y1="525" y2="525" /><line x1="505"  x2="510" y1="530" y2="530" /><line x1="505"  x2="510" y1="535" y2="535" /><line x1="505"  x2="510" y1="540" y2="540" /><line x1="505"  x2="510" y1="545" y2="545" /><text x="520" y="550" style="fill:#fff;font-family:sans-serif">1980</text><line x1="505"  x2="515" y1="550" y2="550" /><line x1="505"  x2="510" y1="555" y2="555" /><line x1="505"  x2="510" y1="560" y2="560" /><line x1="505"  x2="510" y1="565" y2="565" /><line x1="505"  x2="510" y1="570" y2="570" /><line x1="505"  x2="510" y1="575" y2="575" /><line x1="505"  x2="510" y1="580" y2="580" /><line x1="505"  x2="510" y1="585" y2="585" /><line x1="505"  x2="510" y1="590" y2="590" /><line x1="505"  x2="510" y1="595" y2="595" /><text x="520" y="600" style="fill:#fff;font-family:sans-serif">1990</text><line x1="505"  x2="515" y1="600" y2="600" /><line x1="505"  x2="510" y1="605" y2="605" /><line x1="505"  x2="510" y1="610" y2="610" /><line x1="505"  x2="510" y1="615" y2="615" /><line x1="505"  x2="510" y1="620" y2="620" /><line x1="505"  x2="510" y1="625" y2="625" /><line x1="505"  x2="510" y1="630" y2="630" /><line x1="505"  x2="510" y1="635" y2="635" /><line x1="505"  x2="510" y1="640" y2="640" /><line x1="505"  x2="510" y1="645" y2="645" /><text x="520" y="650" style="fill:#fff;font-family:sans-serif">2000</text><line x1="505"  x2="515" y1="650" y2="650" /><line x1="505"  x2="510" y1="655" y2="655" /><line x1="505"  x2="510" y1="660" y2="660" /><line x1="505"  x2="510" y1="665" y2="665" /><line x1="505"  x2="510" y1="670" y2="670" /><line x1="505"  x2="510" y1="675" y2="675" /><line x1="505"  x2="510" y1="680" y2="680" /><line x1="505"  x2="510" y1="685" y2="685" /><line x1="505"  x2="510" y1="690" y2="690" /><line x1="505"  x2="510" y1="695" y2="695" /><text x="520" y="700" style="fill:#fff;font-family:sans-serif">2010</text><line x1="505"  x2="515" y1="700" y2="700" /><line x1="505"  x2="510" y1="705" y2="705" /><line x1="505"  x2="510" y1="710" y2="710" /><line x1="505"  x2="510" y1="715" y2="715" /><line x1="505"  x2="510" y1="720" y2="720" /><line x1="505"  x2="510" y1="725" y2="725" /><line x1="505"  x2="510" y1="730" y2="730" /><line x1="505"  x2="510" y1="735" y2="735" /><line x1="505"  x2="510" y1="740" y2="740" /><line x1="505"  x2="510" y1="745" y2="745" /><text x="520" y="750" style="fill:#fff;font-family:sans-serif">2020</text><line x1="505"  x2="515" y1="750" y2="750" /><line x1="505"  x2="510" y1="755" y2="755" /><line x1="505"  x2="510" y1="760" y2="760" /><line x1="505"  x2="510" y1="765" y2="765" /><line x1="505"  x2="510" y1="770" y2="770" /><line x1="505"  x2="510" y1="775" y2="775" /><line x1="505"  x2="510" y1="780" y2="780" /><line x1="505"  x2="510" y1="785" y2="785" /><line x1="505"  x2="510" y1="790" y2="790" /><line x1="505"  x2="510" y1="795" y2="795" /></g><br />
<b>Notice</b>:  Undefined index: start_timeline in <b>C:\xampp\htdocs\timetravel\index.php</b> on line <b>131</b><br />
<br />
<b>Notice</b>:  Undefined index: end_timeline in <b>C:\xampp\htdocs\timetravel\index.php</b> on line <b>134</b><br />
<br />
<b>Notice</b>:  Undefined index: back_to_the in <b>C:\xampp\htdocs\timetravel\index.php</b> on line <b>154</b><br />
<br />
<b>Notice</b>:  Undefined index: back_to_the in <b>C:\xampp\htdocs\timetravel\index.php</b> on line <b>160</b><br />
<br />
<b>Notice</b>:  Undefined index: desc in <b>C:\xampp\htdocs\timetravel\index.php</b> on line <b>166</b><br />
<path class="time_travel taveler_type_time_machine " d="M500,575 S 440 500 500,425" /><text style="fill:#fff;font-family:sans-serif" x="700" y="575"></text><path style="stroke:white; fill:none" class="label-line" d="M500,575 L 700,575" /><br />
<b>Notice</b>:  Undefined index: start_timeline in <b>C:\xampp\htdocs\timetravel\index.php</b> on line <b>131</b><br />
<br />
<b>Notice</b>:  Undefined index: end_timeline in <b>C:\xampp\htdocs\timetravel\index.php</b> on line <b>134</b><br />
<path class="time_travel taveler_type_time_machine back_to_the_future" d="M500,425 S 560 500 500,575" /><br />
<b>Notice</b>:  Undefined index: start_timeline in <b>C:\xampp\htdocs\timetravel\index.php</b> on line <b>131</b><br />
<br />
<b>Notice</b>:  Undefined index: end_timeline in <b>C:\xampp\htdocs\timetravel\index.php</b> on line <b>134</b><br />
<br />
<b>Notice</b>:  Undefined index: back_to_the in <b>C:\xampp\htdocs\timetravel\index.php</b> on line <b>154</b><br />
<br />
<b>Notice</b>:  Undefined index: back_to_the in <b>C:\xampp\htdocs\timetravel\index.php</b> on line <b>160</b><br />
<br />
<b>Notice</b>:  Undefined index: desc in <b>C:\xampp\htdocs\timetravel\index.php</b> on line <b>166</b><br />
<path class="time_travel taveler_type_time_machine " d="M500,575 S 560 650 500,725" /><text style="fill:#fff;font-family:sans-serif" x="700" y="575"></text><path style="stroke:white; fill:none" class="label-line" d="M500,575 L 700,575" /><br />
<b>Notice</b>:  Undefined index: start_timeline in <b>C:\xampp\htdocs\timetravel\index.php</b> on line <b>131</b><br />
<br />
<b>Notice</b>:  Undefined index: end_timeline in <b>C:\xampp\htdocs\timetravel\index.php</b> on line <b>134</b><br />
<br />
<b>Notice</b>:  Undefined index: back_to_the in <b>C:\xampp\htdocs\timetravel\index.php</b> on line <b>154</b><br />
<br />
<b>Notice</b>:  Undefined index: back_to_the in <b>C:\xampp\htdocs\timetravel\index.php</b> on line <b>160</b><br />
<br />
<b>Notice</b>:  Undefined index: desc in <b>C:\xampp\htdocs\timetravel\index.php</b> on line <b>166</b><br />
<path class="time_travel taveler_type_time_machine " d="M500,725 S 380 575 500,425" /><text style="fill:#fff;font-family:sans-serif" x="700" y="725"></text><path style="stroke:white; fill:none" class="label-line" d="M500,725 L 700,725" /><br />
<b>Notice</b>:  Undefined index: start_timeline in <b>C:\xampp\htdocs\timetravel\index.php</b> on line <b>131</b><br />
<br />
<b>Notice</b>:  Undefined index: end_timeline in <b>C:\xampp\htdocs\timetravel\index.php</b> on line <b>134</b><br />
<path class="time_travel taveler_type_time_machine back_to_the_future" d="M500,425 S 620 575 500,725" /><br />
<b>Notice</b>:  Undefined index: start_timeline in <b>C:\xampp\htdocs\timetravel\index.php</b> on line <b>131</b><br />
<path class="time_travel taveler_type_time_machine back_to_the_future" d="M500,575 S 560 650 430,725" /><br />
<b>Notice</b>:  Undefined index: end_timeline in <b>C:\xampp\htdocs\timetravel\index.php</b> on line <b>134</b><br />
<br />
<b>Notice</b>:  Undefined index: back_to_the in <b>C:\xampp\htdocs\timetravel\index.php</b> on line <b>154</b><br />
<br />
<b>Notice</b>:  Undefined index: back_to_the in <b>C:\xampp\htdocs\timetravel\index.php</b> on line <b>160</b><br />
<br />
<b>Notice</b>:  Undefined index: desc in <b>C:\xampp\htdocs\timetravel\index.php</b> on line <b>166</b><br />
<path class="time_travel taveler_type_time_machine " d="M430,575 S 440 500 500,425" /><text style="fill:#fff;font-family:sans-serif" x="630" y="575"></text><path style="stroke:white; fill:none" class="label-line" d="M430,575 L 630,575" /><br />
<b>Notice</b>:  Undefined index: start_timeline in <b>C:\xampp\htdocs\timetravel\index.php</b> on line <b>131</b><br />
<br />
<b>Notice</b>:  Undefined index: end_timeline in <b>C:\xampp\htdocs\timetravel\index.php</b> on line <b>134</b><br />
<br />
<b>Notice</b>:  Undefined index: back_to_the in <b>C:\xampp\htdocs\timetravel\index.php</b> on line <b>154</b><br />
<br />
<b>Notice</b>:  Undefined index: back_to_the in <b>C:\xampp\htdocs\timetravel\index.php</b> on line <b>160</b><br />
<br />
<b>Notice</b>:  Undefined index: desc in <b>C:\xampp\htdocs\timetravel\index.php</b> on line <b>166</b><br />
<path class="time_travel taveler_type_time_machine " d="M500,575 S 300 325 500,75" /><text style="fill:#fff;font-family:sans-serif" x="700" y="575"></text><path style="stroke:white; fill:none" class="label-line" d="M500,575 L 700,575" /><br />
<b>Notice</b>:  Undefined index: start_timeline in <b>C:\xampp\htdocs\timetravel\index.php</b> on line <b>131</b><br />
<br />
<b>Notice</b>:  Undefined index: end_timeline in <b>C:\xampp\htdocs\timetravel\index.php</b> on line <b>134</b><br />
<br />
<b>Notice</b>:  Undefined index: back_to_the in <b>C:\xampp\htdocs\timetravel\index.php</b> on line <b>154</b><br />
<br />
<b>Notice</b>:  Undefined index: back_to_the in <b>C:\xampp\htdocs\timetravel\index.php</b> on line <b>160</b><br />
<br />
<b>Notice</b>:  Undefined index: desc in <b>C:\xampp\htdocs\timetravel\index.php</b> on line <b>166</b><br />
<path class="time_travel taveler_type_time_machine " d="M500,425 S 360 250 500,75" /><text style="fill:#fff;font-family:sans-serif" x="700" y="425"></text><path style="stroke:white; fill:none" class="label-line" d="M500,425 L 700,425" /><br />
<b>Notice</b>:  Undefined index: start_timeline in <b>C:\xampp\htdocs\timetravel\index.php</b> on line <b>131</b><br />
<br />
<b>Notice</b>:  Undefined index: end_timeline in <b>C:\xampp\htdocs\timetravel\index.php</b> on line <b>134</b><br />
<br />
<b>Notice</b>:  Undefined index: back_to_the in <b>C:\xampp\htdocs\timetravel\index.php</b> on line <b>154</b><br />
<br />
<b>Notice</b>:  Undefined index: back_to_the in <b>C:\xampp\htdocs\timetravel\index.php</b> on line <b>160</b><br />
<br />
<b>Notice</b>:  Undefined index: desc in <b>C:\xampp\htdocs\timetravel\index.php</b> on line <b>166</b><br />
<path class="time_travel taveler_type_time_machine " d="M500,75 S 700 325 500,575" /><text style="fill:#fff;font-family:sans-serif" x="700" y="75"></text><path style="stroke:white; fill:none" class="label-line" d="M500,75 L 700,75" /><br />
<b>Notice</b>:  Undefined index: point_of_divergence in <b>C:\xampp\htdocs\timetravel\index.php</b> on line <b>100</b><br />
<path class="timeline" d="M500,0 L500, 10150" /><br />
<b>Notice</b>:  Undefined variable: start_timelayer in <b>C:\xampp\htdocs\timetravel\index.php</b> on line <b>105</b><br />
<path d="M500,425C500 ,475,570, 475,570,575 L570, 575" class="timeline" /><path d="M570, 575 L571,775" class="timeline vanishing" /><br />
<b>Notice</b>:  Undefined variable: start_timelayer in <b>C:\xampp\htdocs\timetravel\index.php</b> on line <b>105</b><br />
<path d="M500,425C500 ,475,430, 475,430,575 L430, 725" class="timeline" /><path d="M430, 725 L431,925" class="timeline vanishing" /></svg>